<!-- Agricultural Tractor Icon SVG -->
<svg class="logo-icon" viewBox="0 0 24 24" fill="currentColor">
  <!-- Main Tractor Body -->
  <path d="M6 12h10c1.1 0 2 .9 2 2v2c0 .55-.45 1-1 1h-1.5c-.28 0-.5-.22-.5-.5v-.5h-8v.5c0 .28-.22.5-.5.5H5c-.55 0-1-.45-1-1v-2c0-1.1.9-2 2-2z"/>
  
  <!-- Engine Hood -->
  <path d="M5 10h6c.55 0 1 .45 1 1v3H4v-3c0-.55.45-1 1-1z"/>
  
  <!-- Cabin -->
  <path d="M11 8h4c.55 0 1 .45 1 1v5h-6V9c0-.55.45-1 1-1z"/>
  <rect x="12" y="9.5" width="2" height="1.5" fill="rgba(255,255,255,0.3)" rx="0.2"/>
  
  <!-- Large Rear Wheel -->
  <circle cx="16" cy="18" r="3.5" fill="currentColor"/>
  <circle cx="16" cy="18" r="2.8" fill="none" stroke="rgba(255,255,255,0.2)" stroke-width="1"/>
  <circle cx="16" cy="18" r="1.8" fill="none" stroke="rgba(255,255,255,0.3)" stroke-width="0.8"/>
  <circle cx="16" cy="18" r="0.8" fill="rgba(255,255,255,0.2)"/>
  
  <!-- Small Front Wheel -->
  <circle cx="7" cy="17.5" r="2.2" fill="currentColor"/>
  <circle cx="7" cy="17.5" r="1.7" fill="none" stroke="rgba(255,255,255,0.2)" stroke-width="0.8"/>
  <circle cx="7" cy="17.5" r="0.6" fill="rgba(255,255,255,0.2)"/>
  
  <!-- Exhaust Pipe -->
  <rect x="9" y="5" width="1.2" height="3" rx="0.6" fill="currentColor"/>
  <ellipse cx="9.6" cy="5" rx="0.8" ry="0.4" fill="rgba(255,255,255,0.2)"/>
  
  <!-- Front Grille -->
  <rect x="5.2" y="10.5" width="5.6" height="2" fill="rgba(0,0,0,0.1)" rx="0.2"/>
  <line x1="6" y1="11" x2="10" y2="11" stroke="rgba(255,255,255,0.1)" stroke-width="0.3"/>
  <line x1="6" y1="11.5" x2="10" y2="11.5" stroke="rgba(255,255,255,0.1)" stroke-width="0.3"/>
  <line x1="6" y1="12" x2="10" y2="12" stroke="rgba(255,255,255,0.1)" stroke-width="0.3"/>
  
  <!-- Headlight -->
  <circle cx="5.5" cy="11.5" r="0.8" fill="rgba(255,255,255,0.9)"/>
  <circle cx="5.5" cy="11.5" r="0.5" fill="rgba(255,255,255,0.6)"/>
  
  <!-- Cabin Details -->
  <rect x="11.5" y="8.5" width="3" height="0.8" fill="rgba(0,0,0,0.1)" rx="0.2"/>
  
  <!-- Wheel Treads -->
  <path d="M13.5 17 L18.5 19" stroke="rgba(0,0,0,0.2)" stroke-width="0.5"/>
  <path d="M13.5 19 L18.5 17" stroke="rgba(0,0,0,0.2)" stroke-width="0.5"/>
  <path d="M16 14.5 L16 21.5" stroke="rgba(0,0,0,0.2)" stroke-width="0.5"/>
  
  <path d="M5.5 16 L8.5 19" stroke="rgba(0,0,0,0.2)" stroke-width="0.3"/>
  <path d="M5.5 19 L8.5 16" stroke="rgba(0,0,0,0.2)" stroke-width="0.3"/>
</svg>